<svg xmlns="http://www.w3.org/2000/svg" xmlns:xlink="http://www.w3.org/1999/xlink" viewBox="0 0 108 24"><path d="M 34.24 16.304 C 34.646 16.304 34.976 16.245 35.232 16.128 C 35.499 16 35.702 15.835 35.84 15.632 C 35.99 15.419 36.091 15.179 36.144 14.912 C 36.198 14.635 36.224 14.352 36.224 14.064 L 36.224 13.776 L 38.337 13.776 L 38.337 14.064 C 38.337 15.397 37.984 16.427 37.281 17.152 C 36.587 17.867 35.574 18.224 34.241 18.224 C 32.961 18.224 31.947 17.834 31.201 17.056 C 30.454 16.277 30.081 15.141 30.081 13.648 L 30.081 11.152 C 30.081 10.437 30.177 9.797 30.369 9.232 C 30.561 8.656 30.838 8.176 31.201 7.792 C 31.563 7.397 32.001 7.099 32.513 6.896 C 33.025 6.683 33.6 6.576 34.24 6.576 C 34.902 6.576 35.488 6.672 36 6.864 C 36.513 7.056 36.94 7.334 37.28 7.696 C 37.632 8.059 37.894 8.496 38.065 9.008 C 38.245 9.52 38.337 10.096 38.337 10.736 L 38.337 11.024 L 36.224 11.024 L 36.224 10.736 C 36.224 10.469 36.193 10.203 36.129 9.936 C 36.069 9.678 35.96 9.434 35.809 9.216 C 35.653 8.997 35.444 8.821 35.201 8.704 C 34.944 8.565 34.624 8.496 34.241 8.496 C 33.924 8.488 33.61 8.56 33.328 8.704 C 33.072 8.832 32.859 9.014 32.688 9.248 C 32.518 9.472 32.39 9.738 32.304 10.048 C 32.228 10.357 32.191 10.674 32.193 10.992 L 32.193 13.808 C 32.193 14.171 32.23 14.507 32.304 14.816 C 32.379 15.115 32.496 15.376 32.656 15.6 C 32.816 15.824 33.025 16 33.281 16.128 C 33.547 16.245 33.867 16.304 34.241 16.304 Z M 39.877 11.152 C 39.877 9.702 40.24 8.576 40.965 7.776 C 41.701 6.976 42.715 6.576 44.005 6.576 C 45.296 6.576 46.304 6.976 47.029 7.776 C 47.765 8.576 48.133 9.701 48.133 11.152 L 48.133 13.648 C 48.133 15.141 47.765 16.278 47.029 17.056 C 46.304 17.835 45.296 18.224 44.005 18.224 C 42.715 18.224 41.701 17.834 40.965 17.056 C 40.24 16.277 39.877 15.141 39.877 13.648 Z M 44.005 16.304 C 44.389 16.304 44.709 16.245 44.965 16.128 C 45.221 16 45.429 15.824 45.589 15.6 C 45.749 15.376 45.861 15.11 45.925 14.8 C 45.989 14.49 46.021 14.15 46.021 13.776 L 46.021 11.024 C 46.021 10.672 45.984 10.341 45.909 10.032 C 45.844 9.745 45.725 9.474 45.557 9.232 C 45.397 9.008 45.189 8.832 44.933 8.704 C 44.677 8.565 44.368 8.496 44.005 8.496 C 43.643 8.496 43.333 8.566 43.077 8.704 C 42.828 8.826 42.614 9.007 42.453 9.232 C 42.285 9.473 42.166 9.745 42.101 10.032 C 42.027 10.342 41.989 10.672 41.989 11.024 L 41.989 13.776 C 41.989 14.149 42.021 14.491 42.085 14.8 C 42.149 15.11 42.261 15.376 42.421 15.6 C 42.581 15.824 42.789 16 43.045 16.128 C 43.301 16.245 43.621 16.304 44.005 16.304 Z M 49.642 6.8 L 53.706 6.8 C 55.093 6.8 56.122 7.125 56.794 7.776 C 57.466 8.416 57.802 9.413 57.802 10.768 L 57.802 14.032 C 57.802 15.387 57.466 16.389 56.794 17.04 C 56.122 17.68 55.093 18 53.706 18 L 49.642 18 L 49.642 15.968 L 50.698 15.968 L 50.698 8.816 L 49.642 8.816 Z M 53.706 15.984 C 54.442 15.984 54.954 15.814 55.242 15.472 C 55.541 15.12 55.69 14.576 55.69 13.84 L 55.69 10.768 C 55.69 10.128 55.54 9.643 55.242 9.312 C 54.954 8.982 54.442 8.816 53.706 8.816 L 52.81 8.816 L 52.81 15.984 Z M 60.016 6.8 L 67.087 6.8 L 67.087 8.816 L 62.127 8.816 L 62.127 11.376 L 66.895 11.376 L 66.895 13.392 L 62.127 13.392 L 62.127 15.984 L 67.279 15.984 L 67.279 18 L 60.015 18 L 60.015 6.8 Z M 71.764 13.776 L 71.764 18 L 69.652 18 L 69.652 6.8 L 74.036 6.8 C 74.612 6.8 75.113 6.896 75.54 7.088 C 75.967 7.269 76.319 7.515 76.596 7.824 C 76.884 8.123 77.097 8.469 77.236 8.864 C 77.386 9.248 77.46 9.643 77.46 10.048 L 77.46 10.432 C 77.46 10.848 77.385 11.259 77.236 11.664 C 76.95 12.482 76.335 13.143 75.54 13.488 C 75.113 13.68 74.612 13.776 74.036 13.776 Z M 71.764 11.76 L 73.828 11.76 C 74.298 11.76 74.665 11.632 74.932 11.376 C 75.209 11.12 75.348 10.789 75.348 10.384 L 75.348 10.192 C 75.348 9.787 75.209 9.456 74.932 9.2 C 74.665 8.944 74.297 8.816 73.828 8.816 L 71.764 8.816 Z M 87.224 6.8 L 87.224 14.128 C 87.224 15.408 86.884 16.411 86.201 17.136 C 85.529 17.861 84.526 18.224 83.193 18.224 C 81.859 18.224 80.852 17.861 80.169 17.136 C 79.497 16.411 79.161 15.408 79.161 14.128 L 79.161 6.8 L 81.273 6.8 L 81.273 14.128 C 81.273 14.789 81.427 15.307 81.737 15.68 C 82.047 16.053 82.531 16.24 83.193 16.24 C 83.854 16.24 84.34 16.053 84.649 15.68 C 84.959 15.307 85.113 14.79 85.113 14.128 L 85.113 6.8 L 87.225 6.8 Z M 94.51 16.944 L 94.798 16.944 L 94.798 6.8 L 96.91 6.8 L 96.91 18 L 92.782 18 L 91.47 7.856 L 91.182 7.856 L 91.182 18 L 89.07 18 L 89.07 6.8 L 93.198 6.8 Z M 101.235 18 L 99.123 18 L 99.123 6.8 L 101.235 6.8 L 101.235 11.392 L 101.699 11.392 L 104.659 6.8 L 107.043 6.8 L 107.043 6.896 L 103.587 12.256 L 103.587 12.544 L 107.235 17.904 L 107.235 18 L 104.755 18 L 101.699 13.408 L 101.235 13.408 Z" fill="rgb(251,251,251)"></path><g transform="translate(0 1)" id="ss1281302041_2"><path d="M 0 0 L 21 0 L 21 21 L 0 21 Z" fill="transparent"></path><path d="M 15.75 0 L 5.25 0 C 2.351 0 0 2.351 0 5.25 L 0 15.75 C 0 18.649 2.351 21 5.25 21 L 15.75 21 C 18.649 21 21 18.649 21 15.75 L 21 5.25 C 21 2.351 18.649 0 15.75 0 Z M 7.907 12.043 C 8.115 12.24 8.2 12.535 8.128 12.812 C 8.056 13.09 7.84 13.306 7.562 13.378 C 7.285 13.45 6.99 13.365 6.793 13.157 L 4.693 11.057 C 4.545 10.909 4.462 10.709 4.462 10.5 C 4.462 10.291 4.545 10.091 4.693 9.943 L 6.793 7.843 C 7.103 7.549 7.59 7.556 7.892 7.858 C 8.194 8.16 8.201 8.647 7.907 8.957 L 6.364 10.5 Z M 12.307 7.041 L 10.207 14.391 C 10.088 14.809 9.652 15.051 9.234 14.932 C 8.816 14.813 8.574 14.377 8.693 13.959 L 10.793 6.609 C 10.912 6.191 11.348 5.949 11.766 6.068 C 12.184 6.187 12.426 6.623 12.307 7.041 Z M 16.307 11.057 L 14.207 13.157 C 13.897 13.451 13.41 13.444 13.108 13.142 C 12.806 12.84 12.799 12.353 13.093 12.043 L 14.636 10.5 L 13.093 8.957 C 12.815 8.645 12.828 8.17 13.124 7.874 C 13.42 7.578 13.895 7.565 14.207 7.843 L 16.307 9.943 C 16.614 10.251 16.614 10.749 16.307 11.057 Z" fill="rgb(255,255,255)"></path></g></svg>